<mxfile host="app.diagrams.net" agent="Mozilla/5.0 (Windows NT 10.0; Win64; x64) AppleWebKit/537.36 (KHTML, like Gecko) Chrome/130.0.0.0 YaBrowser/24.12.0.0 Safari/537.36" version="25.0.3">
  <diagram name="Страница — 1" id="R0wx6_uxov8O2kn3f_hA">
    <mxGraphModel dx="1000" dy="548" grid="1" gridSize="10" guides="1" tooltips="1" connect="1" arrows="1" fold="1" page="1" pageScale="1" pageWidth="827" pageHeight="1169" math="0" shadow="0">
      <root>
        <mxCell id="0" />
        <mxCell id="1" parent="0" />
        <mxCell id="pxDLfQE0uhIfUz3yU7aq-1" value="Начало" style="rounded=1;whiteSpace=wrap;html=1;arcSize=50;" vertex="1" parent="1">
          <mxGeometry x="320" y="40" width="160" height="40" as="geometry" />
        </mxCell>
        <mxCell id="pxDLfQE0uhIfUz3yU7aq-4" value="step = 1; step &amp;lt; n; step++" style="shape=hexagon;perimeter=hexagonPerimeter2;whiteSpace=wrap;html=1;fixedSize=1;" vertex="1" parent="1">
          <mxGeometry x="320" y="240" width="160" height="80" as="geometry" />
        </mxCell>
        <mxCell id="pxDLfQE0uhIfUz3yU7aq-5" value="&lt;div&gt;int nearestCity = -1;&lt;/div&gt;&lt;div&gt;int minDistance = int.MaxValue;&lt;/div&gt;" style="rounded=0;whiteSpace=wrap;html=1;" vertex="1" parent="1">
          <mxGeometry x="320" y="360" width="160" height="80" as="geometry" />
        </mxCell>
        <mxCell id="pxDLfQE0uhIfUz3yU7aq-6" value="i = 0; i &amp;lt; n; i++" style="shape=hexagon;perimeter=hexagonPerimeter2;whiteSpace=wrap;html=1;fixedSize=1;" vertex="1" parent="1">
          <mxGeometry x="320" y="480" width="160" height="80" as="geometry" />
        </mxCell>
        <mxCell id="pxDLfQE0uhIfUz3yU7aq-7" value="visited[i] == 0 &amp;amp;&amp;amp; distances[currentCity, i] &amp;lt; minDistance" style="rhombus;whiteSpace=wrap;html=1;" vertex="1" parent="1">
          <mxGeometry x="320" y="600" width="160" height="80" as="geometry" />
        </mxCell>
        <mxCell id="pxDLfQE0uhIfUz3yU7aq-8" value="&lt;div&gt;&amp;nbsp;minDistance = distances[currentCity, i];&lt;/div&gt;&lt;div&gt;&amp;nbsp;nearestCity = i;&lt;/div&gt;" style="rounded=0;whiteSpace=wrap;html=1;" vertex="1" parent="1">
          <mxGeometry x="439" y="680" width="160" height="80" as="geometry" />
        </mxCell>
        <mxCell id="pxDLfQE0uhIfUz3yU7aq-9" value="&lt;div&gt;visited[nearestCity] = 1;&lt;/div&gt;&lt;div&gt;path[step] = nearestCity;&lt;/div&gt;&lt;div&gt;currentCity = nearestCity;&lt;/div&gt;" style="rounded=0;whiteSpace=wrap;html=1;" vertex="1" parent="1">
          <mxGeometry x="320" y="840" width="160" height="80" as="geometry" />
        </mxCell>
        <mxCell id="pxDLfQE0uhIfUz3yU7aq-12" value="Приближенный маршрут:" style="shape=display;whiteSpace=wrap;html=1;" vertex="1" parent="1">
          <mxGeometry x="320" y="1000" width="160" height="80" as="geometry" />
        </mxCell>
        <mxCell id="pxDLfQE0uhIfUz3yU7aq-13" value="i = 0; i &amp;lt; n; i++" style="shape=hexagon;perimeter=hexagonPerimeter2;whiteSpace=wrap;html=1;fixedSize=1;" vertex="1" parent="1">
          <mxGeometry x="320" y="1120" width="160" height="80" as="geometry" />
        </mxCell>
        <mxCell id="pxDLfQE0uhIfUz3yU7aq-15" value="path[i]+(i &amp;lt; n-1 ? &quot;-&amp;gt;&quot; : &quot;&quot;)" style="shape=display;whiteSpace=wrap;html=1;" vertex="1" parent="1">
          <mxGeometry x="320" y="1239" width="160" height="80" as="geometry" />
        </mxCell>
        <mxCell id="pxDLfQE0uhIfUz3yU7aq-16" value="Конец" style="rounded=1;whiteSpace=wrap;html=1;arcSize=50;" vertex="1" parent="1">
          <mxGeometry x="320" y="1379" width="160" height="40" as="geometry" />
        </mxCell>
        <mxCell id="pxDLfQE0uhIfUz3yU7aq-17" value="&lt;div&gt;&lt;font style=&quot;font-size: 9px;&quot;&gt;int n = distances.GetLength(0);&lt;/font&gt;&lt;/div&gt;&lt;div&gt;&lt;font style=&quot;font-size: 9px;&quot;&gt;int[] visited = new int[n];&lt;/font&gt;&lt;/div&gt;&lt;div&gt;&lt;font style=&quot;font-size: 9px;&quot;&gt;int[] path = new int[n];&lt;/font&gt;&lt;/div&gt;&lt;div&gt;&lt;font style=&quot;font-size: 9px;&quot;&gt;int currentCity = 0;&lt;/font&gt;&lt;/div&gt;&lt;div&gt;&lt;font style=&quot;font-size: 9px;&quot;&gt;visited[currentCity] = 1;&lt;/font&gt;&lt;/div&gt;" style="shape=parallelogram;perimeter=parallelogramPerimeter;whiteSpace=wrap;html=1;fixedSize=1;size=-10;" vertex="1" parent="1">
          <mxGeometry x="320" y="120" width="160" height="80" as="geometry" />
        </mxCell>
        <mxCell id="pxDLfQE0uhIfUz3yU7aq-18" value="" style="endArrow=none;html=1;rounded=0;exitX=0.5;exitY=0;exitDx=0;exitDy=0;" edge="1" parent="1" source="pxDLfQE0uhIfUz3yU7aq-17">
          <mxGeometry width="50" height="50" relative="1" as="geometry">
            <mxPoint x="350" y="130" as="sourcePoint" />
            <mxPoint x="400" y="80" as="targetPoint" />
          </mxGeometry>
        </mxCell>
        <mxCell id="pxDLfQE0uhIfUz3yU7aq-20" value="" style="endArrow=none;html=1;rounded=0;exitX=0.5;exitY=0;exitDx=0;exitDy=0;entryX=0.5;entryY=1;entryDx=0;entryDy=0;" edge="1" parent="1" source="pxDLfQE0uhIfUz3yU7aq-4" target="pxDLfQE0uhIfUz3yU7aq-17">
          <mxGeometry width="50" height="50" relative="1" as="geometry">
            <mxPoint x="352" y="250" as="sourcePoint" />
            <mxPoint x="402" y="200" as="targetPoint" />
          </mxGeometry>
        </mxCell>
        <mxCell id="pxDLfQE0uhIfUz3yU7aq-22" value="" style="endArrow=none;html=1;rounded=0;exitX=0.5;exitY=0;exitDx=0;exitDy=0;" edge="1" parent="1" source="pxDLfQE0uhIfUz3yU7aq-5">
          <mxGeometry width="50" height="50" relative="1" as="geometry">
            <mxPoint x="350" y="370" as="sourcePoint" />
            <mxPoint x="400" y="320" as="targetPoint" />
          </mxGeometry>
        </mxCell>
        <mxCell id="pxDLfQE0uhIfUz3yU7aq-23" value="" style="endArrow=none;html=1;rounded=0;" edge="1" parent="1" source="pxDLfQE0uhIfUz3yU7aq-6">
          <mxGeometry width="50" height="50" relative="1" as="geometry">
            <mxPoint x="350" y="490" as="sourcePoint" />
            <mxPoint x="400" y="440" as="targetPoint" />
          </mxGeometry>
        </mxCell>
        <mxCell id="pxDLfQE0uhIfUz3yU7aq-24" value="" style="endArrow=none;html=1;rounded=0;exitX=0.5;exitY=0;exitDx=0;exitDy=0;" edge="1" parent="1" source="pxDLfQE0uhIfUz3yU7aq-7">
          <mxGeometry width="50" height="50" relative="1" as="geometry">
            <mxPoint x="350" y="610" as="sourcePoint" />
            <mxPoint x="400" y="560" as="targetPoint" />
          </mxGeometry>
        </mxCell>
        <mxCell id="pxDLfQE0uhIfUz3yU7aq-29" value="" style="endArrow=none;html=1;rounded=0;entryX=0.5;entryY=0;entryDx=0;entryDy=0;" edge="1" parent="1" target="pxDLfQE0uhIfUz3yU7aq-8">
          <mxGeometry width="50" height="50" relative="1" as="geometry">
            <mxPoint x="480" y="640" as="sourcePoint" />
            <mxPoint x="530" y="590" as="targetPoint" />
            <Array as="points">
              <mxPoint x="520" y="640" />
            </Array>
          </mxGeometry>
        </mxCell>
        <mxCell id="pxDLfQE0uhIfUz3yU7aq-31" value="" style="endArrow=classic;html=1;rounded=0;exitX=0.5;exitY=1;exitDx=0;exitDy=0;entryX=0;entryY=0.5;entryDx=0;entryDy=0;" edge="1" parent="1" source="pxDLfQE0uhIfUz3yU7aq-8" target="pxDLfQE0uhIfUz3yU7aq-6">
          <mxGeometry width="50" height="50" relative="1" as="geometry">
            <mxPoint x="250" y="730" as="sourcePoint" />
            <mxPoint x="240" y="720" as="targetPoint" />
            <Array as="points">
              <mxPoint x="519" y="780" />
              <mxPoint x="240" y="780" />
              <mxPoint x="240" y="520" />
            </Array>
          </mxGeometry>
        </mxCell>
        <mxCell id="pxDLfQE0uhIfUz3yU7aq-32" value="" style="endArrow=classic;html=1;rounded=0;exitX=0.5;exitY=1;exitDx=0;exitDy=0;" edge="1" parent="1" source="pxDLfQE0uhIfUz3yU7aq-7">
          <mxGeometry width="50" height="50" relative="1" as="geometry">
            <mxPoint x="250" y="730" as="sourcePoint" />
            <mxPoint x="240" y="720" as="targetPoint" />
            <Array as="points">
              <mxPoint x="400" y="720" />
            </Array>
          </mxGeometry>
        </mxCell>
        <mxCell id="pxDLfQE0uhIfUz3yU7aq-33" value="" style="endArrow=none;html=1;rounded=0;exitX=1;exitY=0.5;exitDx=0;exitDy=0;entryX=0.5;entryY=0;entryDx=0;entryDy=0;endFill=0;" edge="1" parent="1" source="pxDLfQE0uhIfUz3yU7aq-6" target="pxDLfQE0uhIfUz3yU7aq-9">
          <mxGeometry width="50" height="50" relative="1" as="geometry">
            <mxPoint x="250" y="720" as="sourcePoint" />
            <mxPoint x="300" y="670" as="targetPoint" />
            <Array as="points">
              <mxPoint x="640" y="520" />
              <mxPoint x="640" y="800" />
              <mxPoint x="400" y="800" />
            </Array>
          </mxGeometry>
        </mxCell>
        <mxCell id="pxDLfQE0uhIfUz3yU7aq-34" value="" style="endArrow=classic;html=1;rounded=0;exitX=0.5;exitY=1;exitDx=0;exitDy=0;entryX=0;entryY=0.5;entryDx=0;entryDy=0;" edge="1" parent="1" source="pxDLfQE0uhIfUz3yU7aq-9" target="pxDLfQE0uhIfUz3yU7aq-4">
          <mxGeometry width="50" height="50" relative="1" as="geometry">
            <mxPoint x="250" y="810" as="sourcePoint" />
            <mxPoint x="300" y="760" as="targetPoint" />
            <Array as="points">
              <mxPoint x="400" y="940" />
              <mxPoint x="300" y="940" />
              <mxPoint x="200" y="940" />
              <mxPoint x="200" y="280" />
            </Array>
          </mxGeometry>
        </mxCell>
        <mxCell id="pxDLfQE0uhIfUz3yU7aq-37" value="" style="endArrow=none;html=1;rounded=0;entryX=0;entryY=0;entryDx=80;entryDy=0;entryPerimeter=0;exitX=1;exitY=0.5;exitDx=0;exitDy=0;" edge="1" parent="1" source="pxDLfQE0uhIfUz3yU7aq-4" target="pxDLfQE0uhIfUz3yU7aq-12">
          <mxGeometry width="50" height="50" relative="1" as="geometry">
            <mxPoint x="480" y="280" as="sourcePoint" />
            <mxPoint x="690" y="600" as="targetPoint" />
            <Array as="points">
              <mxPoint x="680" y="280" />
              <mxPoint x="680" y="960" />
              <mxPoint x="400" y="960" />
            </Array>
          </mxGeometry>
        </mxCell>
        <mxCell id="pxDLfQE0uhIfUz3yU7aq-38" value="" style="endArrow=none;html=1;rounded=0;exitX=0.5;exitY=0;exitDx=0;exitDy=0;" edge="1" parent="1" source="pxDLfQE0uhIfUz3yU7aq-13">
          <mxGeometry width="50" height="50" relative="1" as="geometry">
            <mxPoint x="350" y="1130" as="sourcePoint" />
            <mxPoint x="400" y="1080" as="targetPoint" />
          </mxGeometry>
        </mxCell>
        <mxCell id="pxDLfQE0uhIfUz3yU7aq-39" value="" style="endArrow=none;html=1;rounded=0;exitX=0;exitY=0;exitDx=80;exitDy=0;exitPerimeter=0;" edge="1" parent="1" source="pxDLfQE0uhIfUz3yU7aq-15">
          <mxGeometry width="50" height="50" relative="1" as="geometry">
            <mxPoint x="350" y="1250" as="sourcePoint" />
            <mxPoint x="400" y="1200" as="targetPoint" />
          </mxGeometry>
        </mxCell>
        <mxCell id="pxDLfQE0uhIfUz3yU7aq-40" value="" style="endArrow=classic;html=1;rounded=0;exitX=0;exitY=0;exitDx=80;exitDy=80;exitPerimeter=0;entryX=0;entryY=0.5;entryDx=0;entryDy=0;" edge="1" parent="1" source="pxDLfQE0uhIfUz3yU7aq-15" target="pxDLfQE0uhIfUz3yU7aq-13">
          <mxGeometry width="50" height="50" relative="1" as="geometry">
            <mxPoint x="230" y="1300" as="sourcePoint" />
            <mxPoint x="280" y="1250" as="targetPoint" />
            <Array as="points">
              <mxPoint x="400" y="1350" />
              <mxPoint x="340" y="1350" />
              <mxPoint x="280" y="1350" />
              <mxPoint x="280" y="1160" />
            </Array>
          </mxGeometry>
        </mxCell>
        <mxCell id="pxDLfQE0uhIfUz3yU7aq-41" value="" style="endArrow=none;html=1;rounded=0;entryX=0.5;entryY=0;entryDx=0;entryDy=0;" edge="1" parent="1" target="pxDLfQE0uhIfUz3yU7aq-16">
          <mxGeometry width="50" height="50" relative="1" as="geometry">
            <mxPoint x="480" y="1160" as="sourcePoint" />
            <mxPoint x="530" y="1110" as="targetPoint" />
            <Array as="points">
              <mxPoint x="520" y="1160" />
              <mxPoint x="520" y="1360" />
              <mxPoint x="400" y="1360" />
            </Array>
          </mxGeometry>
        </mxCell>
      </root>
    </mxGraphModel>
  </diagram>
</mxfile>
